<svg viewBox="0 0 400 398.7" xmlns="http://www.w3.org/2000/svg"><g fill-rule="evenodd"><path d="M365 13a380 380 0 0 1-42 5 309 309 0 0 0-35 5 355 355 0 0 0-29 4c-21 2-17-1-49 29-25 24-25 24-27 24-4 1-4-5-1-25 1-13 1-16-4-17a198 198 0 0 0-40 5 246 246 0 0 0-32 4c-19 2-24 3-26 7-2 2-4 11-6 21a187 187 0 0 1-5 23 1391 1391 0 0 1-18 93 5386 5386 0 0 1-20 100c-19 95-18 89-16 92 3 3 5 1 29-24l107-108c5-2 4-3 32 26 32 32 28 29 44 27a275 275 0 0 1 24-4 295 295 0 0 1 30-5 298 298 0 0 1 28-4 278 278 0 0 1 26-4l13-2c20-3 27-5 27-8s-1-4-13-16l-13-12-20-18a7885 7885 0 0 1-50-47c-29-26-32-29-30-33A1273 1273 0 0 1 351 43c24-25 25-26 24-28-1-3-4-3-10-2m-22 15c5 2 4 3-21 29a13069 13069 0 0 0-94 97c0 4 1 5 10 14a2890 2890 0 0 1 77 71 3159 3159 0 0 0 27 27c1 3-2 5-8 6a694 694 0 0 0-53 8 287 287 0 0 0-33 5l-14 2h-15c-3-2-7-5-39-38-19-19-20-20-23-20-4 0-3-1-61 58-53 55-53 55-56 55-5-1-5-3 4-46A6563 6563 0 0 0 83 96a203 203 0 0 1 4-19c2-13 3-16 10-17a414 414 0 0 1 67-8c4 1 4 4 3 10a267 267 0 0 0-3 26c-3 17-3 24 0 25 2 1 4-1 38-33 43-42 40-39 47-41a1423 1423 0 0 0 60-8l24-3h10" fill="#f2f1f2"/><path d="M0 199v200h400V0H0v199M373 13c4 2 4 3-22 30a4472 4472 0 0 0-102 108c-2 4 1 7 30 33a4549 4549 0 0 1 70 65l13 12c12 12 13 13 13 16s-7 5-27 8a291 291 0 0 0-25 4 278 278 0 0 0-27 4 298 298 0 0 0-31 5 295 295 0 0 0-26 4l-12 2c-16 2-12 5-44-27-28-29-27-28-32-26L44 359c-24 25-26 27-29 24-2-3-3 3 16-92A38657 38657 0 0 0 74 75c2-10 4-19 6-21 2-4 7-5 26-7a366 366 0 0 0 43-6l29-3c5 1 5 4 4 17-3 20-3 26 1 25 2 0 2 0 27-24 32-30 28-27 49-29a374 374 0 0 0 29-4 367 367 0 0 0 35-5l16-2a288 288 0 0 1 34-3m-40 15a365 365 0 0 1-41 5 308 308 0 0 1-32 5l-11 2c-7 1-4-2-47 40-34 32-36 34-38 33-3-1-3-8 0-25a324 324 0 0 0 3-26c1-6 1-9-3-10-2-1-15 0-26 2l-15 2-26 4c-7 1-8 4-10 17a184 184 0 0 1-4 19 328 328 0 0 1-6 31 237 237 0 0 0-4 23 242 242 0 0 0-6 30 1039 1039 0 0 1-15 74l-8 42c-9 43-9 45-4 46 3 0 3 0 56-55 58-59 57-58 61-58 3 0 4 1 23 20 32 33 36 36 39 38h15a393 393 0 0 1 32-5 287 287 0 0 1 28-4 248 248 0 0 1 27-4l13-2c6-1 9-3 8-6l-13-13a3159 3159 0 0 1-101-99l27-29a21305 21305 0 0 0 90-95c-1-2-6-3-12-2" fill="#241528"/></g></svg>